<?xml version="1.0" standalone="no"?>
<!DOCTYPE svg PUBLIC "-//W3C//DTD SVG 20010904//EN"
 "http://www.w3.org/TR/2001/REC-SVG-20010904/DTD/svg10.dtd">
<svg version="1.0" xmlns="http://www.w3.org/2000/svg"
 width="640.000000pt" height="564.000000pt" viewBox="0 0 640.000000 564.000000"
 preserveAspectRatio="xMidYMid meet">
<metadata>
Created by potrace 1.15, written by Peter Selinger 2001-2017
</metadata>
<g transform="translate(0.000000,564.000000) scale(0.100000,-0.100000)"
fill="#000000" stroke="none">
<path d="M0 2820 l0 -2820 3200 0 3200 0 0 2820 0 2820 -3200 0 -3200 0 0
-2820z m3596 173 c3 -10 11 -28 16 -40 10 -21 12 -21 24 -5 12 16 13 16 14 -3
0 -34 20 -95 31 -95 6 0 8 10 4 23 -5 17 -4 19 4 7 6 -8 8 -23 5 -34 -5 -14
-3 -16 7 -10 26 16 35 11 36 -20 l2 -31 -11 29 c-8 21 -13 25 -19 15 -5 -8 -9
-18 -9 -24 0 -5 4 -4 9 3 6 10 10 7 15 -12 l7 -26 22 23 c17 19 26 22 38 14
13 -8 21 -6 34 7 29 28 40 14 43 -58 2 -48 -1 -71 -12 -81 -15 -16 -31 -21
-23 -7 3 4 -5 7 -18 7 -18 0 -21 -3 -13 -13 9 -10 2 -11 -33 -7 -30 5 -40 4
-30 -3 8 -6 20 -8 28 -5 7 3 13 1 13 -4 0 -15 -50 -14 -56 2 -4 8 -15 15 -26
15 -10 0 -17 -4 -14 -9 4 -5 -3 -7 -14 -4 -11 3 -17 10 -14 15 8 12 -25 37
-49 38 -11 0 -21 9 -24 20 -3 11 -9 20 -14 20 -5 0 -9 7 -9 15 0 8 -9 31 -21
52 -18 31 -18 35 -3 23 19 -16 19 -22 -2 67 -6 21 -4 25 9 20 12 -4 14 0 10
23 -7 49 30 95 43 53z m-1042 -557 c4 -18 12 -24 25 -21 11 2 25 -3 31 -10 9
-11 17 -11 37 -2 18 8 29 8 43 -1 16 -10 26 -8 53 8 42 25 71 18 63 -16 -18
-70 -53 -118 -77 -103 -8 5 -21 9 -28 9 -12 0 -12 -3 -3 -12 13 -13 16 -29 5
-27 -5 1 -10 1 -13 -1 -3 -1 -17 -3 -33 -5 -31 -4 -75 35 -107 97 -11 20 -24
39 -30 43 -5 3 -10 12 -10 18 1 7 8 3 18 -8 9 -11 25 -27 36 -34 14 -12 12 -5
-8 31 -28 51 -30 58 -17 58 5 0 12 -11 15 -24z m71 -709 c39 -84 100 -173 152
-222 25 -25 50 -45 54 -45 5 0 21 -12 36 -26 37 -35 175 -133 238 -169 52 -30
252 -158 270 -172 18 -15 89 -58 127 -78 34 -17 42 -18 85 -7 26 7 69 24 95
37 26 13 48 22 48 19 0 -3 20 6 45 20 43 26 59 24 33 -3 -7 -7 3 -4 22 8 19
11 39 21 44 21 5 0 6 -51 3 -115 -3 -63 -4 -115 -3 -115 2 0 11 34 21 76 l18
77 22 -54 c22 -54 22 -54 3 -76 -37 -41 -18 -174 51 -353 22 -56 42 -231 33
-290 -3 -25 -8 -29 -23 -25 -12 4 -21 1 -25 -9 -8 -22 -80 -47 -133 -46 -25 0
-59 0 -76 1 -16 0 -63 -3 -102 -7 -67 -6 -75 -4 -99 17 -22 21 -43 55 -41 69
0 3 -4 14 -10 25 -6 11 -14 108 -17 215 -4 107 -9 247 -12 311 l-6 117 25 -5
c27 -5 93 13 102 27 3 5 -14 2 -39 -7 l-44 -17 -64 34 c-232 124 -598 386
-721 519 -49 52 -128 202 -142 269 -10 47 1 39 30 -21z m671 -864 c2 -113 -25
-612 -35 -633 -27 -63 -15 -61 -309 -67 -268 -6 -270 -5 -291 16 -14 14 -19
27 -14 34 10 15 10 38 0 55 -12 18 0 15 34 -10 29 -22 31 -22 44 -5 10 15 9
31 -12 100 -22 74 -23 88 -13 147 6 36 12 96 13 134 l2 69 33 -52 c42 -64 89
-101 130 -101 28 0 32 5 51 55 12 31 21 65 21 76 0 16 5 18 24 13 29 -7 38 6
56 84 13 57 13 57 42 41 16 -9 24 -6 44 12 17 16 38 23 70 25 29 1 56 9 72 22
36 28 37 28 38 -15z"/>
</g>
</svg>
